<svg width="22" height="20" viewBox="0 0 22 20" fill="none" xmlns="http://www.w3.org/2000/svg">
<path d="M19 18.6484C19 18.9136 18.8946 19.1679 18.7071 19.3555C18.5196 19.543 18.2652 19.6484 18 19.6484H4C3.73478 19.6484 3.48043 19.543 3.29289 19.3555C3.10536 19.1679 3 18.9136 3 18.6484V9.64836H0L10.327 0.260357C10.5111 0.0928353 10.7511 0 11 0C11.2489 0 11.4889 0.0928353 11.673 0.260357L22 9.64836H19V18.6484ZM6.5 11.6484C6.5 12.8418 6.97411 13.9864 7.81802 14.8303C8.66193 15.6743 9.80653 16.1484 11 16.1484C12.1935 16.1484 13.3381 15.6743 14.182 14.8303C15.0259 13.9864 15.5 12.8418 15.5 11.6484H13.5C13.5 12.3114 13.2366 12.9473 12.7678 13.4161C12.2989 13.885 11.663 14.1484 11 14.1484C10.337 14.1484 9.70107 13.885 9.23223 13.4161C8.76339 12.9473 8.5 12.3114 8.5 11.6484H6.5Z" fill="#09121F"/>
</svg>
