<svg width="13" height="13" viewBox="0 0 13 13" fill="none" xmlns="http://www.w3.org/2000/svg">
<path d="M7.15 11.635C7.88397 11.4849 8.5436 11.086 9.01735 10.5056C9.4911 9.9253 9.74991 9.19916 9.75 8.45V6.5C9.75087 6.05268 9.65902 5.61004 9.48025 5.2H3.51975C3.34098 5.61004 3.24913 6.05268 3.25 6.5V8.45C3.25009 9.19916 3.50889 9.9253 3.98264 10.5056C4.45639 11.086 5.11602 11.4849 5.85 11.635V7.8H7.15V11.635ZM2.2984 10.1985C2.06775 9.64445 1.94933 9.05014 1.95 8.45H0V7.15H1.95V6.5C1.95 6.08205 2.00655 5.67775 2.11185 5.2936L0.6734 4.4629L1.3234 3.3371L2.6364 4.095C2.67784 4.0289 2.72097 3.96388 2.76575 3.9H10.2342C10.2791 3.9637 10.322 4.02935 10.3636 4.095L11.6766 3.3371L12.3266 4.4629L10.8881 5.2936C10.9934 5.6771 11.05 6.08205 11.05 6.5V7.15H13V8.45H11.05C11.05 9.06945 10.9265 9.6603 10.7016 10.1985L12.3266 11.1371L11.6766 12.2629L10.0347 11.3152C9.60854 11.8419 9.0699 12.2666 8.45828 12.5582C7.84666 12.8497 7.17755 13.0007 6.5 13C5.82245 13.0007 5.15334 12.8497 4.54172 12.5582C3.93009 12.2666 3.39146 11.8419 2.9653 11.3152L1.3234 12.2629L0.6734 11.1371L2.2984 10.1991V10.1985ZM3.9 2.6C3.9 1.91044 4.17393 1.24912 4.66152 0.761522C5.14912 0.273928 5.81044 0 6.5 0C7.18956 0 7.85088 0.273928 8.33848 0.761522C8.82607 1.24912 9.1 1.91044 9.1 2.6H3.9Z" fill="#7E7E7E"/>
</svg>
