<svg width="12" height="13" viewBox="0 0 12 13" fill="none" xmlns="http://www.w3.org/2000/svg">
<path d="M7.49872 0.998635C7.85304 0.998514 8.20164 1.08806 8.51204 1.25895C8.82244 1.42983 9.08454 1.67649 9.27394 1.97595C9.46334 2.27541 9.57387 2.61793 9.59525 2.97161C9.61663 3.32529 9.54815 3.67863 9.39619 3.99872L11.398 3.99812C11.5572 3.99812 11.7097 4.06133 11.8222 4.17383C11.9347 4.28633 11.9979 4.43892 11.9979 4.59802V6.99761C11.9979 7.15671 11.9347 7.3093 11.8222 7.4218C11.7097 7.5343 11.5572 7.59751 11.398 7.59751H10.7982V12.3967C10.7982 12.5558 10.7349 12.7084 10.6224 12.8209C10.5099 12.9334 10.3574 12.9966 10.1983 12.9966H1.79969C1.64059 12.9966 1.488 12.9334 1.3755 12.8209C1.263 12.7084 1.19979 12.5558 1.19979 12.3967V7.59751H0.599897C0.440795 7.59751 0.288208 7.5343 0.175706 7.4218C0.0632033 7.3093 0 7.15671 0 6.99761V4.59802C0 4.43892 0.0632033 4.28633 0.175706 4.17383C0.288208 4.06133 0.440795 3.99812 0.599897 3.99812L2.60175 3.99872C2.38804 3.5498 2.34058 3.03961 2.4678 2.55897C2.59502 2.07833 2.88868 1.65843 3.29649 1.37402C3.70431 1.08962 4.19982 0.959159 4.69482 1.00587C5.18981 1.05259 5.65217 1.27345 5.99957 1.62913C6.19456 1.42908 6.42771 1.2702 6.68522 1.16189C6.94273 1.05359 7.21936 0.998078 7.49872 0.998635V0.998635ZM9.59836 7.59751H2.39959V11.7968H9.59836V7.59751ZM10.7982 5.19792H1.19979V6.39771H10.7982V5.19792ZM4.49923 2.19843C4.26814 2.19854 4.04595 2.28756 3.8787 2.44703C3.71146 2.6065 3.61197 2.82421 3.60087 3.05503C3.58976 3.28586 3.66789 3.5121 3.81905 3.6869C3.97022 3.86169 4.18283 3.97162 4.41284 3.99392L4.49923 3.99812H5.39908V3.09828C5.39907 2.87458 5.31574 2.65892 5.16534 2.49333C5.01495 2.32774 4.80827 2.2241 4.58562 2.20263L4.49923 2.19843ZM7.49872 2.19843L7.41233 2.20263C7.20439 2.22255 7.00986 2.3142 6.8621 2.46185C6.71434 2.6095 6.62255 2.80397 6.60247 3.01189L6.59887 3.09828V3.99812H7.49872L7.5851 3.99392C7.80768 3.97234 8.01425 3.86866 8.16455 3.70308C8.31485 3.53751 8.39812 3.3219 8.39812 3.09828C8.39812 2.87465 8.31485 2.65904 8.16455 2.49347C8.01425 2.32789 7.80768 2.22421 7.5851 2.20263L7.49872 2.19843Z" fill="#7E7E7E"/>
</svg>
