<svg width="15" height="15" viewBox="0 0 15 15" fill="none" xmlns="http://www.w3.org/2000/svg">
<path d="M14.246 10.6859C14.2457 11.66 13.9127 12.6048 13.3022 13.3639C12.6917 14.123 11.8403 14.6508 10.8889 14.86L10.4345 13.4967C10.8506 13.4281 11.2464 13.2681 11.5932 13.0282C11.9401 12.7882 12.2294 12.4743 12.4403 12.1091H10.6845C10.3067 12.1091 9.94432 11.959 9.67716 11.6918C9.40999 11.4247 9.2599 11.0623 9.2599 10.6845V7.8353C9.2599 7.45747 9.40999 7.09512 9.67716 6.82795C9.94432 6.56079 10.3067 6.4107 10.6845 6.4107H12.7772C12.6034 5.03375 11.9331 3.76755 10.8921 2.84968C9.85106 1.93181 8.51088 1.42537 7.123 1.42537C5.73512 1.42537 4.39494 1.93181 3.35392 2.84968C2.31289 3.76755 1.64259 5.03375 1.46876 6.4107H3.5615C3.93933 6.4107 4.30168 6.56079 4.56884 6.82795C4.83601 7.09512 4.9861 7.45747 4.9861 7.8353V10.6845C4.9861 11.0623 4.83601 11.4247 4.56884 11.6918C4.30168 11.959 3.93933 12.1091 3.5615 12.1091H1.4246C1.04677 12.1091 0.68442 11.959 0.417256 11.6918C0.150091 11.4247 0 11.0623 0 10.6845V7.123C0 3.18897 3.18897 0 7.123 0C11.057 0 14.246 3.18897 14.246 7.123V10.6859ZM12.8214 10.6845V7.8353H10.6845V10.6845H12.8214ZM1.4246 7.8353V10.6845H3.5615V7.8353H1.4246Z" fill="#38B000"/>
</svg>
